<svg id="圖層_1" data-name="圖層 1" xmlns="http://www.w3.org/2000/svg" xmlns:xlink="http://www.w3.org/1999/xlink" viewBox="0 0 360 64"><defs><style>.cls-1{fill:#00995b;}.cls-2{fill:#fff;}.cls-3{fill:url(#未命名漸層_3);}.cls-4{fill:url(#未命名漸層_2);}.cls-5{fill:#27b360;}</style><radialGradient id="未命名漸層_3" cx="49.01" cy="14.59" r="23.43" gradientUnits="userSpaceOnUse"><stop offset="0" stop-color="#95c51a"/><stop offset="0.61" stop-color="#40b34b"/><stop offset="1" stop-color="#009957"/></radialGradient><radialGradient id="未命名漸層_2" cx="52.69" cy="2.54" r="44.28" gradientUnits="userSpaceOnUse"><stop offset="0" stop-color="#95c51a"/><stop offset="0.5" stop-color="#40b34b"/><stop offset="1" stop-color="#009957"/></radialGradient></defs><title>Tzuchi Logo</title><g id="LOGO_中央圈圈" data-name="LOGO 中央圈圈"><path class="cls-1" d="M67.19,33.88a19.65,19.65,0,0,1-16.27,9.56h-.05A19.62,19.62,0,0,1,34.6,33.88S26.9,23.63,31.1,16.4c0,0,6-5.58,19.77-5.36h.05c13.72-.22,19.77,5.36,19.77,5.36C74.88,23.63,67.19,33.88,67.19,33.88Z"/><path class="cls-1" d="M67.19,33.88a19.65,19.65,0,0,1-16.27,9.56h-.05A19.62,19.62,0,0,1,34.6,33.88S26.9,23.63,31.1,16.4c0,0,6-5.58,19.77-5.36h.05c13.72-.22,19.77,5.36,19.77,5.36C74.88,23.63,67.19,33.88,67.19,33.88Z"/><path class="cls-2" d="M66.38,33.55a18.68,18.68,0,0,1-15.47,9.08h0a18.68,18.68,0,0,1-15.46-9.08s-7.31-9.74-3.32-16.61c0,0,5.74-5.3,18.78-5.09h0c13-.21,18.79,5.09,18.79,5.09C73.69,23.81,66.38,33.55,66.38,33.55Z"/><path class="cls-3" d="M65.6,33.24a17.71,17.71,0,0,1-14.69,8.62h0a17.7,17.7,0,0,1-14.68-8.62S29.24,24,33,17.46c0,0,5.46-5,17.84-4.84h0c12.39-.2,17.85,4.84,17.85,4.84C72.55,24,65.6,33.24,65.6,33.24Z"/></g><path id="LOGO_蓮花" data-name="LOGO 蓮花" class="cls-4" d="M51.23,44.14c13.52-.23,19.35-14.69,19.35-14.69a19.1,19.1,0,0,0,1.86-6.06,14.88,14.88,0,0,0-.23-6.06,4.5,4.5,0,0,1,.7-2.8c.23-.93,3.26-3.26,3.26-3.26A1.2,1.2,0,0,1,77.34,11c.46,0,.93,1.4.93,1.4.23,0,.7,3.73.7,3.73a16.6,16.6,0,0,1,0,3.49C78,34.82,65.45,41.58,65.45,41.58,78.27,34.35,79.9,23.16,79.9,23.16c.93-3.26,4.66-4.66,4.66-4.66,1.17-.7,1.4.93,1.4.93s.47,3.73-1.86,9.33c-4.9,11.42-20,16.08-20,16.08,0,.23,5.36-1.86,5.36-1.86C81.3,38.31,85.26,29.22,85.26,29.22c.24-.93,2.8-2.1,2.8-2.1,3.5-1.4,2.77.8,2.77.8A23.14,23.14,0,0,1,79,42c-7,4.43-18.19,5.6-18.19,5.6l2.69-.35s8.86-1.4,9.55-1.63a5.43,5.43,0,0,1,5.37.23s1.86,1.63-1.87,3c-5.83,1.87-20.63,1.52-20.63,1.52-2.8,2.33-4.9,2.1-4.9,2.1s-2.1.46-5.13-2.1c0,0-14.77.35-20.59-1.52-3.73-1.4-1.87-3-1.87-3a5.41,5.41,0,0,1,5.36-.23c.7.23,9.56,1.63,9.56,1.63l2.68.35S29.81,46.47,22.82,42A23.11,23.11,0,0,1,11,27.92s-.73-2.2,2.77-.8c0,0,2.56,1.17,2.79,2.1,0,0,4,9.09,15.86,13.76,0,0,5.36,2.09,5.36,1.86,0,0-15.16-4.66-20-16.08-2.33-5.6-1.87-9.33-1.87-9.33s.24-1.63,1.4-.93c0,0,3.73,1.4,4.67,4.66,0,0,1.63,11.19,14.45,18.42,0,0-12.59-6.76-13.52-21.92a15.92,15.92,0,0,1,0-3.49s.46-3.73.7-3.73c0,0,.46-1.4.93-1.4a1.2,1.2,0,0,1,1.17.23s3,2.33,3.26,3.26a4.5,4.5,0,0,1,.7,2.8,14.88,14.88,0,0,0-.23,6.06,19.1,19.1,0,0,0,1.86,6.06S37,43.91,50.56,44.14Z"/><g id="LOGO_中央" data-name="LOGO 中央"><g id="主"><path class="cls-2" d="M65.58,28.76c-1.16.35-12.12-.59-11.19-12.59l-2.1-.12v-1.4H49.73v1.4l-2.22.12c1.4,12.59-11.19,12.59-11.19,12.59l-.11,2.44s14,0,13.75-13.75h2.1s-.7,13.29,13.52,13.75Z"/><path class="cls-1" d="M51.06,16.53h.68v.23h-.92v-.68h-.41v.69h-.23v-.92h.64v-.43h-.65v-.23h.89v.66h.41v-.66h.23v.89h-.64Z"/><path class="cls-2" d="M37.61,31.44v2.09s9.32-.46,11.19,4.2h4.66s-.23-3.73,11-4.2V31.2s-11.66.24-12.83,4.9h-.93S48.1,31,37.61,31.44Z"/></g><g id="中"><path class="cls-2" d="M53.23,29.11v-4.2h-.94v1.63h-.93V24.91h-.93v1.63H49.5V24.91h-.94v4c0,.93,1.17.93,1.17.93h.7V34h.93V29.8h.7S53.23,29.8,53.23,29.11Z"/><rect class="cls-1" x="49.5" y="27.47" width="0.93" height="1.4"/><rect class="cls-1" x="51.36" y="27.47" width="0.93" height="1.4"/></g></g><path class="cls-5" d="M109.85,49.44,109,47.69l.16-.21h.25l.16-4.85-.16-.9.16-.41L109,31.45h-.25A22.84,22.84,0,0,1,107,34.1c-.66.94-1.39,1.79-2.08,2.69-.9.45-1.76.9-2.58,1.39s-1.67,1.06-2.49,1.67v.29l-1.06.65a38.1,38.1,0,0,0,5-5.67,17.53,17.53,0,0,0,3-6.45,2.37,2.37,0,0,1-1.43-.77,3.11,3.11,0,0,0-1.38-.82,5.59,5.59,0,0,1-1.76,1.8,10.54,10.54,0,0,0-2.12,1.67v-.16c.37-.62.73-1.27,1.1-1.92a7.49,7.49,0,0,0,.65-2.2l-.4-1.6.12-1.06h1.1a8,8,0,0,0,1.18.17.83.83,0,0,1,.82.73l.12,1.35a7.65,7.65,0,0,1,1.55.45,12,12,0,0,0,1.39.61v-.25l.65-.57.13-5.59h-.66c-1.26.45-2.53.86-3.79,1.23a35,35,0,0,1-4,.77l-1.72-1.06L98.18,21l2.29-.65.28-.82a2.67,2.67,0,0,1,1.19-.53,8.66,8.66,0,0,1,1.47-.12l.81.41,4-.94v-.81a1,1,0,0,1-.37-.78V15.7a2,2,0,0,0,.45-1.1c0-.41.08-.86.08-1.27l.25-.12v-.16h.16a1.48,1.48,0,0,0,1.19.85,3.37,3.37,0,0,1,1.51.49,3.28,3.28,0,0,1,.28,1.63c0,.62-.08,1.19-.08,1.84h1.27l1.83-.28.17-.66h.36l4.82.94v.53l-.82.78a8.25,8.25,0,0,1-3.79.53,11.21,11.21,0,0,0-3.92.45l-.29,1.71.17.37-.29,1.59.12.41L111,26.92l.61.28A14.44,14.44,0,0,0,113,24.59a12.71,12.71,0,0,0,.65-2.85l-.16-.53,1-.17,2,1,.12.37-1.1,3.1a13.33,13.33,0,0,1,2.65.41,12.14,12.14,0,0,1,2.45,1l.25.65a1.5,1.5,0,0,1-.66.12c-.24,0-.37.21-.37.57l-1.87.29a14.64,14.64,0,0,0-1.72-1,8.44,8.44,0,0,1-1.75-.9l-2.57.78-.13.94c.62,1.3,1.35,2.57,2.09,3.79a22.93,22.93,0,0,0,2.73,3.55,18.24,18.24,0,0,0,5.18,3c1.88.65,3.68,1.43,5.47,2.2l-.4.53H127a2.24,2.24,0,0,1-1.23.29h-1.43a26.7,26.7,0,0,1-5.59-1.67,14.59,14.59,0,0,1-4.94-3.55l-2.65-4h-.41l-.12,2.57.12.41-.12.49.12,2-.12,1.18.12,1.75-.12.7.12.81a3.4,3.4,0,0,0-.28,1.51v1.68l.16,2.36-.41,1.47-.37.12Z"/><path class="cls-5" d="M133.41,45.73a5.53,5.53,0,0,1-1.11-2,21.47,21.47,0,0,1-.49-2.29,3.59,3.59,0,0,0,.41-1.79,10.09,10.09,0,0,1,.16-1.92V31.37a6.16,6.16,0,0,1-1-2.66c-.12-1-.28-1.91-.48-2.93H131a5.83,5.83,0,0,1,1.06.69,1,1,0,0,0,1.1.24l4-2.53V23.9l-.16-.49.94-.29,1.22.29a10.67,10.67,0,0,1,2.57-.78c.94-.12,1.84-.28,2.7-.44a4.43,4.43,0,0,1,2,.4,5.58,5.58,0,0,0,1.75.53l.16.58-.53.89-.4.12-.66,2,.12,1.07-.28,3.71.16.69-.16,1.06.28,5.59-.12.12v5.84a1.19,1.19,0,0,1-.65.9,2.12,2.12,0,0,1-1.23,0v.16l-.65-.28-.12-.41H143l-1.19.12v.16h-1v.13h-.28v.12h-.41v-.12h-.29v.12h-.12v-.12h-.29v.28l-4.48.37Zm1.26-25.46a18,18,0,0,0,1.27-4.33h.24l.57.7,2.13.4.12,1c-.29.53-.53,1.06-.82,1.68A4.2,4.2,0,0,1,137,21.25l-.66.57-.65.9v-.13h-.28l-2.13,1.23-.4.49C133.49,23,134.1,21.66,134.67,20.27Zm8.57,21.87.13-1.1-.25-.78h.12l.53.29V35.36c-.16-1.79-.24-3.59-.24-5.38a14.17,14.17,0,0,0-.94-5.1h-.53a3.15,3.15,0,0,1-1.39.45,5,5,0,0,0-1.39.32l-.4-.12-1.11-.94A3.71,3.71,0,0,0,135.94,26a13.57,13.57,0,0,1-1.47,1.92L134.1,29l.12,1.22h.53c1-.28,2-.57,3-.9a20.9,20.9,0,0,1,3.15-.57l.12.94-.66.65a24.14,24.14,0,0,0-2.57.9,6.05,6.05,0,0,1-2.61.57l-.82-.28v.57l.13,2.49h.41c1-.21,2-.41,2.85-.57a13.63,13.63,0,0,1,3-.33l.13.78-.7.81-4.9,1-.81-.24-.37,5.71.49.69-.12,1.19,3.1.12,5.67-.25Z"/><path class="cls-5" d="M156.54,36.14l-.66-1.55A9.37,9.37,0,0,0,157.35,33c.41-.61.86-1.23,1.31-1.84l.12-.73h-.28l-.25.32h-.69l-1.31-.61-.53-1.3a12.52,12.52,0,0,1,1.14-2.37,6,6,0,0,0,.86-2.49l-.29-.65a6.57,6.57,0,0,0-1.83-.25,2.91,2.91,0,0,1-1.8-.53v-.16a7.41,7.41,0,0,0,1.92-.49,9.94,9.94,0,0,0,1.71-.94l1.35.12a51,51,0,0,1,5.68-1.22,55.05,55.05,0,0,1,6.08-.57V19h.89l1.72.29.53-.17,2,.41v.41h-.25v.41l.25.08v.94H174a12.05,12.05,0,0,0-2.53-.37c-.85,0-1.71-.08-2.44-.16l-.7.12-1.14-.12a19.65,19.65,0,0,0-4.12.9c-1.35.4-2.7.89-4,1.34v.25l.65,1.43a3.22,3.22,0,0,0-1.55,1.71,6.73,6.73,0,0,1-1.31,2v.41h.53l3-1.84.41-1.47H161v-.2l.65-.17,1.43.49.12.53-.9.94-.53,1.72-.53.36a1.45,1.45,0,0,1-.41,1.1,2.58,2.58,0,0,0-.49,1l-1.67,1.47-1.31.94-.41.9h.25l4.16-2.49v.24a3.24,3.24,0,0,0-.12.86A1.33,1.33,0,0,1,161,34l-.66.69-.53.53L157.72,37h-.65Zm1.55,11.14a.54.54,0,0,1-.57-.08,1.28,1.28,0,0,0-.45-.33,2.79,2.79,0,0,0-.45-.82.77.77,0,0,1-.21-.89,3.62,3.62,0,0,0,.53-1.35c.09-.49.17-1,.25-1.51l-.12-.82.36-2.44h.13l1.34,1.3.25.49a2.88,2.88,0,0,1,.45,1.84c0,.69-.08,1.43-.08,2.12a2.9,2.9,0,0,0-.13,1,.63.63,0,0,1-.49.69l-.4-.12-.13,1.18h-.28Zm.94-28V19l-.53-.12-.94-2h.4l1.84.78.53-.25a1.93,1.93,0,0,0,.08,1.1,2.39,2.39,0,0,1,.21,1h-.53Zm7.71,27.17a5.37,5.37,0,0,1-2.37-1.55c-.41-.69-.81-1.38-1.22-2.12a15.92,15.92,0,0,0-1.39-2h.41c.49.21,1,.41,1.51.61a4.29,4.29,0,0,1,1.35,1l.89,1.8a4.05,4.05,0,0,0,1.8.69,16.77,16.77,0,0,0,2,.12l2.41-.65.24-.9.49-.16.53.16a.45.45,0,0,1,.21-.4.79.79,0,0,1,.49-.13,4.71,4.71,0,0,0,1.43.29,1.85,1.85,0,0,1,1.3.77l.41.9a16,16,0,0,0-4,1A13.36,13.36,0,0,1,169.48,47,11.77,11.77,0,0,1,166.74,46.46Zm-3.39-12.65a7.31,7.31,0,0,1-.85-1.67,8.31,8.31,0,0,1-.45-1.71h.41a2.76,2.76,0,0,1,1.1.73,5.27,5.27,0,0,1,.69,1.18,2.61,2.61,0,0,0,.41,1,1.41,1.41,0,0,1,.12,1Zm6,7h.13v-.37H169l-.13.37v-.08l-1.22-.41v-.28l-.9-.37-.65-1.31-.37-.69.12-.24h1a8,8,0,0,0,1.68.65,4.87,4.87,0,0,1,1.59.94.35.35,0,0,0,.2.49,4.24,4.24,0,0,0,.62.28v.25h-.29v.28h.16v.29l-.28.32.12.41h-.37Zm-1.63-6.73a6.08,6.08,0,0,1-.16-.69L167,32.1l.36-.65a4,4,0,0,0,.82-.9c.16-.37.33-.69.49-1.06v-.65h-.41l-.53.08v.16h-.37a4.67,4.67,0,0,1-.89-1.1,2,2,0,0,1-.41-1.23h.24c.37-.81.7-1.59,1-2.44a16.83,16.83,0,0,0,.57-2.53l.37-.12v-.29h.7l1,.65.53,1.59-1.06,1.15h-.25l-.53,1.06-.78.65v.41h1.43l.53-.29v-.24h.25l.41-1.59h.28v-.37H171V24.1h.53V24h.16l1.31.65.36.9-.73.53-.7,1.72-.4.12L171,29.08a1.47,1.47,0,0,0-.9.33,4.45,4.45,0,0,0-.78.73l-1.06,2h.7l1.42-.41v.17h.25l1.3-.7-1.3,2c-.37.29-.74.53-1.18.82s-.86.44-1.31.65A.66.66,0,0,1,167.72,34.1Zm-.45,5.3-.65-.28v.28l.65.29Zm.37-20.89a8.06,8.06,0,0,0,.9-1.47,4.81,4.81,0,0,0,.32-1.71l-1.3-.49v-.12l.9-.16c.61.12,1.18.24,1.75.4a6.76,6.76,0,0,1,1.63.78l.41,1.43c-.82.2-1.59.41-2.37.61a10.28,10.28,0,0,0-2.24.86Zm7.18,14.24-2.57-3.14,1-.28,2.78,2,.49,1.47-.49.37Zm6.33,7.47-.12-.53h-.29v-.41h-.41v.53h-.12l-.53-.69v.41h-.12l-1.59-.9a9.62,9.62,0,0,0-.54-.82,1.11,1.11,0,0,1-.36-.85l-.66-.58h.41V36h-.28l1.22-.17,1.31.41.36.41v-.12h.25l.12.53h.29v-.41l.41.29v.12l1.26.49.29.53-.13,1.59V39.4h-.28v.13h-.41V39.4H181v.66l.12.28Zm.77-2.53h-.28v.94h.28Z"/><path class="cls-5" d="M181.88,26.84l-.2-.49,2.12-.82a6.53,6.53,0,0,1,2.21-.37l1.1.09a10.18,10.18,0,0,0,3.22-1.07,6.15,6.15,0,0,1,3.47-.53c.16.17.33.29.45.41s.08.29,0,.57l-.08.25a52.72,52.72,0,0,1-5,1.67,33.61,33.61,0,0,1-5.31,1.1Zm3.72,16.6a7,7,0,0,1-1.06-1,5.45,5.45,0,0,0-.82-1.83,3.26,3.26,0,0,1-.73-1.84h.08l1.47.49,1-1.59.49-.61h-.13V37l.13-.25,1-.12V36.3l1.46-.57a1.06,1.06,0,0,1,.9-.69,9.09,9.09,0,0,0,1.27-.17l2,.86.16.74-1.22,1.22a19.2,19.2,0,0,0-.82,3.14,11.39,11.39,0,0,1-1.14,3.06l-.82.17-.61-.25a1.05,1.05,0,0,1-.61.41c-.21,0-.49,0-.86,0A7.74,7.74,0,0,1,185.6,43.44Zm-2-8.57-.13-.61c1.15-.57,2.25-1.14,3.27-1.71a7.52,7.52,0,0,1,3.67-.74l.45.41v.45l-1,.86a11.5,11.5,0,0,0-2.81.9,7,7,0,0,1-3,.69Zm.85-4.48c1.07-.49,2.09-1,3.15-1.6a6,6,0,0,1,3.63-.61.46.46,0,0,1,.33.33,2.38,2.38,0,0,1,0,.49,9.14,9.14,0,0,1-2.49,1.3,21.31,21.31,0,0,1-2.86.66Zm4.13,7.79-.13-.49h-.53l-.81.2-.25-.08-.36-.49h-.37a2.88,2.88,0,0,0-.29,1,8.94,8.94,0,0,0-.08,1.06,2.58,2.58,0,0,0,.37,1.39,12.21,12.21,0,0,1,.61,1.18l1.55.17.16-.17Zm1-17.55a21.74,21.74,0,0,1-1.8-1.38l-.2-.61h.32l.53.12,2.17-.21a4.77,4.77,0,0,1,1.18.62,2.1,2.1,0,0,1,.74,1.06v.61l-1.07,1A16.19,16.19,0,0,1,189.6,20.63Zm24.49,26.28-.9-1c-1-1.26-2-2.61-2.9-4s-1.83-2.77-2.77-4.12l-.41-.12a14.56,14.56,0,0,1-2.53,1.67,13.48,13.48,0,0,1-2.78,1.27v-.29l1.31-.85v-.21a5.68,5.68,0,0,0,1.59-1.67c.41-.57.82-1.23,1.22-1.88V35a11.45,11.45,0,0,1-1.34-2.66,13.65,13.65,0,0,0-1.23-2.69h-.24l-.7.57a34.81,34.81,0,0,1-1.51,5.51,52.46,52.46,0,0,0-1.79,5.35l-1.23.49c-.16-.49-.28-.94-.45-1.39a9.33,9.33,0,0,0-.61-1.39l1.23-.37a20.46,20.46,0,0,0,1.38-3.87,21.74,21.74,0,0,0,.78-4.16H200l-2.25,1.42-.12.62.12.77a9.12,9.12,0,0,1-.82,2.74,12.65,12.65,0,0,1-1.59,2.48l-.36.13a2.17,2.17,0,0,1-.49.85,3.62,3.62,0,0,1-.82.74V40a27.15,27.15,0,0,0,1.47-4.29c.32-1.51.61-3,.81-4.53l-.49-1,.17-.85a9.36,9.36,0,0,0-.45-1.39,3.64,3.64,0,0,1-.33-1.51l.49-.49,1.35.12c.94-.2,1.76-.45,2.61-.69s1.59-.57,2.37-.9v-.73c-.33-1-.61-1.92-.94-2.94a20.76,20.76,0,0,0-1.26-2.78l-.21-.12-.86-1v-.89l.13-.58-.13-1a1.06,1.06,0,0,0,1,.66,1.78,1.78,0,0,1,1.19.45c.49,1.34,1,2.65,1.47,4s.85,2.7,1.22,4.08h.21l.85-1h.74a15.5,15.5,0,0,0,2,.21,2,2,0,0,1,1.59.94l-.12.32a22,22,0,0,1-2.45.45,5,5,0,0,0-2.29.94l-.08.49c.25,1.1.53,2.08.82,3s.69,2,1.1,3h.24l.25-1.14-.08-.7.16-.77a.67.67,0,0,0,.74.24.88.88,0,0,1,.77.12c.2.33.41.66.57.94A2.57,2.57,0,0,1,208.5,32l-.66,3.75c.82,1.59,1.72,3.06,2.62,4.53a35,35,0,0,0,3.1,4.24l.36.13,1.19-1.6h.16a3.73,3.73,0,0,1,.49,1.92,6.54,6.54,0,0,0,.29,2.08l-1.15.41Zm-11-17.75-.82-2.81h-.61a5.26,5.26,0,0,1-1.88.85c-.69.13-1.39.29-2,.45l-.12,1.84.77.16,2.17-.73.49-.37,1.92.94.12-.12Zm5.1-8.08A2.1,2.1,0,0,0,207.6,20a6.72,6.72,0,0,1-1-1h1.71l1.84.86.49,1.35-.12.24-1.11.16Z"/><path class="cls-5" d="M215.76,30.59V29l-.33-.78h1.06l1.22,1.11v1.26L217.47,32l-1,.16Zm.89,15.83v-.57h.17v-.49l3.1-1.88v-.32h.49v-.29a2.24,2.24,0,0,1-.49-1.43,6.8,6.8,0,0,0-.16-1.55l1.38-.16.49,3.26H222a1.93,1.93,0,0,0,.9-.81,10.07,10.07,0,0,1,.65-1l.16-1.55-.32-1.27h-.49a2.31,2.31,0,0,1-1.06.74,5.3,5.3,0,0,1-1.39.2l-2.94-3.55.41.12.49-.12a3.9,3.9,0,0,1,1.71.65,6,6,0,0,0,1.72.9l2-.81.32-2.62h-.49l-1.87.62-.66-.62,3.27-1.55.33-.49,1.71-.16,1.14.33v.61l-.32.45-.49.16-1.23,3.43h-.49l-.16.49-.74.33-.16.44,1.39.29.16,1.71-.81.82v.45c.44,0,.89,0,1.34-.08s.74.16.86.69L226.29,43A44.73,44.73,0,0,1,222,45a17.13,17.13,0,0,0-4.08,2.53Zm2.21-22.68,2-.82.28-1.55c-.57,0-1.18,0-1.75-.08a2.46,2.46,0,0,1-1.51-.7l-.17-.44,3.6-.82.16-1.55a6.66,6.66,0,0,1-.24-1.14,3,3,0,0,0-.37-1l1.26-.17,1.72.78.45,1.55c.49,0,1.06,0,1.67-.08a2.13,2.13,0,0,1,1.47.41v.48l-.16.45-3.92,1.55-.78,1.27h.94l.65-.16.74.16v.45h-.16l-.17.61-2.45,1a6.69,6.69,0,0,1-2.69.57ZM226.61,26H224.9c-.69.33-1.47.65-2.25,1a5.36,5.36,0,0,1-2.57.29L219,26.67l.9-.16v-.33c1.35-.4,2.73-.77,4.16-1.14a23.89,23.89,0,0,1,4.25-.73l2.2.81.17.45-.66.78-3.92,1.87Zm-7.18,5-.16-.78,3.59-1.55,1.55.29v.45l-.41,1-3,1.22Zm9.88,15.1h.12v-.62l-.29-.81-.49-.12-.32-2,.32-1.11H229l.33-3.87h.57a4.4,4.4,0,0,1,1.22,2.89,26.12,26.12,0,0,0,.17,3.19,1,1,0,0,0-.25.65V45l.08,1.39-.57.16v.33l-.16-.16-.16.16Zm1.39-14,.16-.33H231v-.32l-.16-.45.57-.16,2.37-3.59.16.44a10.68,10.68,0,0,1-.57,2.37,6.11,6.11,0,0,0-.41,2.33l.16.61-.4,1h-.49Zm2.77-9.83L232.82,20H233l1.55.78.33.77v.33h-.16l-.17.61.33.12v.17h-.16l-.58-.17-.49,1h-.16ZM237.55,45a6.06,6.06,0,0,1-2-1.71l-1.39-2.49h-.32v-.61l.65-.16a9.41,9.41,0,0,1,3.1,2.36,3.62,3.62,0,0,0,3.72,1.06l.12-1.55-.12-.61h.28l.82,1.23,1.88.77.32,1.27-.49.61a8.3,8.3,0,0,1-2,.41c-.73,0-1.43.08-2.2.08A4.15,4.15,0,0,1,237.55,45ZM235,35.16a3,3,0,0,0,.65-1.31H236c.37-1.26.7-2.52,1-3.75a13.18,13.18,0,0,0,.25-4.08l-.17-.45h-.49l-.73,1.27v-.17a14.28,14.28,0,0,0,.73-3.26c.13-1.18.21-2.29.33-3.43l-.33-.65.82-2.16.9-.13,1.3.13.58,1.87-.58.29-.49,2.2h.33c.69-.32,1.43-.61,2.08-.9a8,8,0,0,1,2.25-.32l1.87.61.17,1.22-.17.33h-.93l-1.11,2.33-1.06.94V26l-1.14.82v-.17a10.37,10.37,0,0,0,.82-2,4.68,4.68,0,0,0,.16-2.12H242l-3.43,1.59-.65-.32-.08.94,1.22.16c.21,1.35.53,2.65.86,4A7.82,7.82,0,0,0,242,32.43l6.08,2.65.45,1.1h-2.28c-1.19-.33-2.33-.65-3.51-1.1a6.1,6.1,0,0,1-3.11-2.33l-.73-1.26h-.33a9,9,0,0,1-.73,1.39A4.73,4.73,0,0,1,236.57,34h-.4l-1.64,2.16-.41.12C234.41,35.89,234.7,35.53,235,35.16Zm2.86,4.57L236.41,37l.33-.17,1.71.78a1.33,1.33,0,0,1,.49,1v1.14l-.65.16Zm6.29-.61a21,21,0,0,0-1.47-1.67v-.33h.57v-.33h.81a9.73,9.73,0,0,1,1.15.41,3.57,3.57,0,0,1,1.06.69l.9,1.23h-.33v.77h-.45l-.12.49-.49.17A4.47,4.47,0,0,1,244.17,39.12Z"/><path class="cls-5" d="M250.12,34.3a43.07,43.07,0,0,0,2.53-4.44,20.42,20.42,0,0,0,1.55-4.74l-.65-1.1h.94l.61.16.32-.16,1.11.49.16.94-2.33,5.14-1.42,1.1-.78.74-2,2Zm2-12.16a5.93,5.93,0,0,0,1-1.71,9.49,9.49,0,0,0,.53-1.84l-.61-1.1h.32a1.26,1.26,0,0,0,1.07.66,2.07,2.07,0,0,1,1.1.28,1.35,1.35,0,0,1,.41.78,8,8,0,0,1,.08.94l-.66.93-3.26,1.55Zm2,24.65-1.1-2a11.61,11.61,0,0,0,.53-2.9c0-1,.12-2,.24-2.85a4.32,4.32,0,0,1-.16-2,3.29,3.29,0,0,0-.29-2l-.77-.33v-.49h-.16V34l1.06-.17,1.55.29,1,2.53a15.56,15.56,0,0,1-.53,4.16,14.2,14.2,0,0,0-.45,4.41l.16,1.83-.45.17Zm10.12-15.26-.65-.49a8.34,8.34,0,0,0-1.43-1.88,11.56,11.56,0,0,0-2-1.38v-.17h.33l3.59,1.27.45,1.22h.77l1.27-.28v-.33a12.41,12.41,0,0,0-.53-2.12c-.29-.66-.57-1.31-.86-1.92h.61l1.23-3.14h-.45l-3.43.49-2-1.72h.94l1.43.33c.73-.12,1.39-.2,2-.33a13.78,13.78,0,0,0,1.83-.49l.17-2L267.26,17l-.45-.16v-.77h.29l2.65.61a1.7,1.7,0,0,1,.33,1v1.18l-.16,1h.32a11,11,0,0,1,2.37-1.06,6.16,6.16,0,0,1,2.61-.21l.29,1.11-.13.28-6.24,1.59L268,24.51h.77l4.08-.94v-.32l.94-.13v.13l2.33.49.33.93-1,.29-.62,1.59-.77.74-.78,3.14-.45.16v-.33h-.32l-.94-1.1a18.28,18.28,0,0,0-3.27.94,13.53,13.53,0,0,1-3.26.94l-.33.65h-.45Zm-2.65,3.88h-.33l-.94-1.27h.49l1.72.16a32.3,32.3,0,0,0,4-1.1c1.35-.41,2.61-.81,3.84-1.22l.12-.45a3.74,3.74,0,0,1,1.59-.33h1.71l.62,1.1a57.08,57.08,0,0,0-6.17,1.92A35.13,35.13,0,0,1,262,36Zm-.61,6.24.12-.94-.61-2c.53.45,1,.86,1.51,1.31a6.83,6.83,0,0,1,1.14,1.67l.16,1.55-.16.77-.61.17Zm8.2,2.77a4,4,0,0,1-1.34-.89L266,41.65l-.78-1.1h.61a6.93,6.93,0,0,1,2.58,1.14,5,5,0,0,0,2.57,1l2.65-.45.29-1.88-.29-1.26h.45A4.82,4.82,0,0,0,276,40.83c.69.45,1.43.86,2.16,1.27v.45a5.53,5.53,0,0,1-3.43,1.87c-1.39.21-2.73.37-4.08.49A6.15,6.15,0,0,1,269.26,44.42Zm0-17c0-.49-.08-1-.08-1.55a2.58,2.58,0,0,1-1.39-.37,1.76,1.76,0,0,0-1.43-.24l-.45.16v.29l.94.81v.29h.29l.82,2.32h.44l.45-.28A2,2,0,0,0,269.22,27.45Zm.7,10.77L269,36.51l-1.06-.66,1.71-.12,2,1.1.16,1.06-1.38.66Zm2.49-11.38V25.29l-.78-.17-1.1.33v2.81l1.26.13.17-.13A2.67,2.67,0,0,0,272.41,26.84Zm6.4,10-.49-.16-2.16-2.53,1.22-.12a5.82,5.82,0,0,1,2.09.61c.57.33,1.22.69,1.83,1.1l.17.78a1.83,1.83,0,0,1-1.19.45,1.62,1.62,0,0,0-1.18.49Z"/><path class="cls-5" d="M287.91,40l-.53-.13a5.58,5.58,0,0,0-.45-1.3,2.57,2.57,0,0,1-.37-1.27l.53-.81-.4-1.06h-.29a5.52,5.52,0,0,0-1.18-4.08,34.59,34.59,0,0,1-2.45-3.64,3.64,3.64,0,0,0,1.18.82,2.81,2.81,0,0,0,1.27.29l.69-.17.65.17A12,12,0,0,0,288,27.08a15.65,15.65,0,0,0,1-1.92h-.28l-.53.82a2.55,2.55,0,0,1-1.07.53,8,8,0,0,0-1.1.41V26.8a25.41,25.41,0,0,0,1.23-4.21c.28-1.43.49-2.89.65-4.44l.41-.13v.25a7.63,7.63,0,0,0,1.67.16,1.8,1.8,0,0,1,1.43.65l.29.94c-.45.74-.9,1.51-1.35,2.29a6.8,6.8,0,0,0-.82,2.61h-.12l-.57-.29V25l.69.41,2.7-1.39.16-.24h.25v-.25l.93-.16.17-.41h.41l3.1,1.06.12.7-.12.28H297v.29l-1.47,1.34a3.26,3.26,0,0,1-.57,1.88,3.4,3.4,0,0,0-.53,1.92l.16.37L294,36.51l.41,1.75-.12.29h-.12v-.13h-.7L292.4,35h.41l.24-5.14-.4-3.8h-.41l-2.17,1.63v-.4h-.4l-.37-1.23H289a3.62,3.62,0,0,0-1.1,1.55,13.92,13.92,0,0,1-.53,1.68l.29,1,.65.17,3.1-1v.28l-2.41,2v.45a6.51,6.51,0,0,1,.74,2c.12.78.24,1.51.32,2.25h.41l1.35-.78v.08a2.83,2.83,0,0,0-.7,1.19c-.16.4-.32.81-.49,1.26L288,40.42Zm11.18-6.33c-.44-.65-.89-1.26-1.3-1.75l-.41-1.1h.29c.77.2,1.59.44,2.4.73a8.21,8.21,0,0,1,2.17,1.31l.69,1.46-1.47.82-.57-.12-.29.12A4.81,4.81,0,0,1,299.09,33.69Zm7.35,12.16v-.41l-.53-.12-.41-2.45.13-.65h.81v.12h.37a46.32,46.32,0,0,0,1.43-5.26c.32-1.8.61-3.67.89-5.55V25L309,23.82h-.28L308.6,23h-.28c-1.06.29-2.12.65-3.19,1.06s-2.08.94-3.18,1.39v.08h-.12v-.37h-.37c-.2.53-.41,1.11-.69,1.72a8.53,8.53,0,0,1-1,1.55l-.37.12v.29l-.57.08-.9-.25V28c.41-1.63.78-3.39,1.06-5.18s.66-3.47,1.06-5.1L300,16.51l1.76-.12,1.47.94.28,2.57-.37,2.29h.62c1.26-.41,2.57-.82,3.87-1.15a17.18,17.18,0,0,1,4.13-.49,18.65,18.65,0,0,0,1.87,1c.66.29,1.31.53,1.88.78v.28l-.24.53a.94.94,0,0,1-.74.49,6.23,6.23,0,0,0-.9.21,3.31,3.31,0,0,0-.69,1.79,4.14,4.14,0,0,1-.53,1.84l.16.57a91.88,91.88,0,0,0-2,9.18,59.24,59.24,0,0,1-2.28,8.9l-.7.12v.28h-.41Z"/><path class="cls-5" d="M320.15,30.35c-.2-.58-.45-1.11-.65-1.6a3.43,3.43,0,0,1-.33-1.71l.29-1.06a.72.72,0,0,0-.17-.53A2.49,2.49,0,0,1,319,25h0c.28.12.57.29.9.41a3,3,0,0,1,.85.65l.49.61.49-.36v-.17l.57-.53h.13l.2-.49-.08-.36.2-.82.41-.16,0-.12.21-.25a1.15,1.15,0,0,0-.45-.57,3.79,3.79,0,0,1-.66-.29c0-.24-.08-.4-.28-.45a.39.39,0,0,1-.33-.32c.37-.16.7-.33,1.06-.49a2.83,2.83,0,0,1,1.07-.21,2.23,2.23,0,0,1,.53.25,3,3,0,0,1,.49.45,5.82,5.82,0,0,1,.2,1,1.33,1.33,0,0,0,.41.9h.24l1.84-.41v-.21l-.74-.28a11.79,11.79,0,0,1-.4-1.27,3.56,3.56,0,0,0-.49-1.26l-.21-.41-.12-.24h.2L327,20c.36.12.77.29,1.14.41l.2.61.53.37v.2l.21,0v.21l-.45.85-.2.29h.24c1.51-.29,3.06-.53,4.61-.73s3.15-.41,4.62-.66v-.08l.2-.12,2.16.57.25-.12a5.22,5.22,0,0,1,1.34.61,15,15,0,0,1,1.35,1l.53,1.26-.24.54-.21,0-.69-.21-1.88.37-.24-.57-.53-.17-.29.37.16-.57-.24,0v0h-.12V24h.12l.24-.94-.45-.12V22.8l-.69-.25c-2.57.45-5.14.9-7.67,1.31a30.81,30.81,0,0,0-7.51,2.49l-.13.28h-.12l-.08-.28H323A6,6,0,0,0,321.91,28a7.73,7.73,0,0,0-.58,1.88h-.12l-.08.94-.33,0Zm25.14,18-.53.08c-.57-.16-1.14-.28-1.67-.41a14,14,0,0,0-1.76-.24l-.85.28a14.18,14.18,0,0,1-4.66-1.83,15.47,15.47,0,0,1-3.91-3.43l-.53-.53a10,10,0,0,1-.58,1.18,5.91,5.91,0,0,1-.73.94l-.25.16-.2.62a10.53,10.53,0,0,0-2,.85,4.59,4.59,0,0,1-2,.66l-.41-.09-1.18.13-.08,0a10.13,10.13,0,0,0,2.08-.74,10.83,10.83,0,0,0,1.92-1.22l0-.17,1.26-1.18c.25-.37.49-.77.74-1.18a3.44,3.44,0,0,0,.53-1.35l-.21-.16v-.12h-.16l-.78-1v-.21l-.2-.12a2.29,2.29,0,0,1-.45-.69,1,1,0,0,0-.53-.49l-.9-.25v-.12l-.53-.16c-.41,1.26-.94,2.45-1.47,3.67s-1.06,2.49-1.59,3.71l-.24,0-.13.25-2,2h-.08l-.32.45-.49.36a5.06,5.06,0,0,0,.53-.73,8.44,8.44,0,0,0,.36-.9h.13l.12-.49.57-.65L323,43h.12l.08-.28h.12c.33-1.14.7-2.24,1.07-3.35a17.43,17.43,0,0,0,.69-3.38l-.2-.21h0v-.16l0-.37,0-.77,0-.49,0-.49H325l.49.12v-.12h.12a2,2,0,0,0,.73.24,1.71,1.71,0,0,1,.66.33,2.74,2.74,0,0,1,.41.82,3.41,3.41,0,0,1,.12.89l-.33.25a5.49,5.49,0,0,1,1.51.57A3.62,3.62,0,0,1,330,37.77c.2.21.36.45.57.7a1.74,1.74,0,0,0,.69.61c.21-.53.33-1.15.53-1.72a4.07,4.07,0,0,0,.17-1.87h-.66v-.08a2.53,2.53,0,0,1-1.22-.33,4,4,0,0,1-.94-.9h.12l.25.08V34.1l-.29-.16v-.09h0l.57.17,2.45-.74v-.16a.85.85,0,0,1,.61-.24h.74l1.35.53.08.32-.08.33.12.28-.33.62-.28-.09a15.94,15.94,0,0,0-.82,2.86,6.48,6.48,0,0,1-1.22,2.82,7.77,7.77,0,0,0,2.16,1.87,12.94,12.94,0,0,0,2.53,1.15l.24-.09.62.37a1.57,1.57,0,0,0,.61.25l.41.28c1.83.53,3.59,1,5.3,1.47s3.39.9,5.19,1.39V48.3c-.33.16-.66.28-1,.41a2,2,0,0,1-1.19,0ZM323.7,33.28l-.12-.08a4.07,4.07,0,0,0-.37-1.1A5.42,5.42,0,0,1,322.8,31a3.32,3.32,0,0,0,.33-1.27,7.94,7.94,0,0,0,0-1.38h.2a5.39,5.39,0,0,1,.66,2.4,7.51,7.51,0,0,0,.41,2.58l-.29.57ZM324.6,19a17.15,17.15,0,0,0,1.55-1.47c.45-.49.94-1.06,1.39-1.63l.33-1h-.09v0l.13-.37.4-.16,1.43.61a6.76,6.76,0,0,1,1.27.82l.2.45-.2.53a1.34,1.34,0,0,0-.86.32,1.36,1.36,0,0,1-.86.33l-.32,0a10.87,10.87,0,0,1-2.17.73,7.28,7.28,0,0,0-2.12,1Zm5.14,12.69a4.42,4.42,0,0,1-1.55-.81v-.17a1.13,1.13,0,0,1-.49-.24,2.48,2.48,0,0,0-.49-.33v-.2l-.81-.45-.66-.61v-.13h.13c1,.37,2,.82,3,1.27a5.46,5.46,0,0,0,3.23.49l2.73-.9,0-.37-.36,0-1-1-.33-.12.45-.08v-.2h.08v-.17l-.37-.24v-.08h.29l.33.12.16.53,1.43.65.2.33a2,2,0,0,1,1.06.32,3.78,3.78,0,0,0,.94.45v.17h.17l.08.32-.08.49a9.7,9.7,0,0,0-2.58.78,5.62,5.62,0,0,1-2.57.61l-.81-.08-.66.24C330.76,32,330.23,31.81,329.74,31.65Zm.33-3.26-.12-.21-1.47-.94-.37-.36v-.45l.16-.33,1.15-.12a3.39,3.39,0,0,1,.85.24,2.34,2.34,0,0,0,.94.21,1.84,1.84,0,0,1,.29.9,9.3,9.3,0,0,1,0,1.06l0,.45h0Zm2.77-7.27-.12-.2h-.61a.89.89,0,0,1-.49-.12l-.49.12V21a4.7,4.7,0,0,1,.33-.73,3.26,3.26,0,0,0,.16-.86l-.73-1.35.36,0v-.24h.21a5.36,5.36,0,0,0,1.22.49,2.4,2.4,0,0,1,1.1.69l.66.9v.45l-.66.69-.57.29Zm.7,5.51a4.37,4.37,0,0,1,.49-.89,1.87,1.87,0,0,0,.41-.94l-.29-.82-.24-.33h.36l.33.05v-.13h.45l.65.25.17.32a3,3,0,0,1,.77.37,4.17,4.17,0,0,1,.78.74l.16,1.22-.37.16-.57-.2a3.42,3.42,0,0,1-.9.12h-.94l-.36-.08-.86.24Z"/></svg>