<svg id="圖層_1" data-name="圖層 1" xmlns="http://www.w3.org/2000/svg" xmlns:xlink="http://www.w3.org/1999/xlink" viewBox="0 0 256 208"><defs><style>.cls-1,.cls-5{fill:#007143;}.cls-2{fill:#fff;}.cls-3{fill:url(#未命名漸層_148);}.cls-4{fill:url(#未命名漸層_21);}.cls-5{font-size:5.75px;font-family:TaipeiSansTCBeta-Bold, Taipei Sans TC Beta;font-weight:700;}</style><radialGradient id="未命名漸層_148" cx="122.16" cy="52.88" r="70.34" gradientUnits="userSpaceOnUse"><stop offset="0" stop-color="#95c51a"/><stop offset="0.61" stop-color="#34923d"/><stop offset="1" stop-color="#006b3d"/></radialGradient><radialGradient id="未命名漸層_21" cx="133.21" cy="16.7" r="132.96" gradientUnits="userSpaceOnUse"><stop offset="0" stop-color="#95c51a"/><stop offset="0.5" stop-color="#34923d"/><stop offset="1" stop-color="#006b3d"/></radialGradient></defs><title>Tzuchi Logo</title><g id="LOGO_中央圈圈" data-name="LOGO 中央圈圈"><path class="cls-1" d="M176.75,110.81c-16.83,28.28-46.62,28.71-48.87,28.7h-.13c-2.25,0-32-.42-48.87-28.7,0,0-23.1-30.8-10.5-52.5,0,0,18.16-16.76,59.37-16.1h.13c41.21-.66,59.37,16.1,59.37,16.1C199.85,80,176.75,110.81,176.75,110.81Z"/><path class="cls-1" d="M176.75,110.81c-16.83,28.28-46.62,28.71-48.87,28.7h-.13c-2.25,0-32-.42-48.87-28.7,0,0-23.1-30.8-10.5-52.5,0,0,18.16-16.76,59.37-16.1h.13c41.21-.66,59.37,16.1,59.37,16.1C199.85,80,176.75,110.81,176.75,110.81Z"/><path class="cls-2" d="M174.3,109.81c-16,26.87-44.29,27.27-46.42,27.27h-.13c-2.13,0-30.43-.4-46.42-27.27,0,0-21.94-29.26-10-49.87,0,0,17.25-15.93,56.39-15.3h.13c39.15-.63,56.4,15.3,56.4,15.3C196.25,80.55,174.3,109.81,174.3,109.81Z"/><path class="cls-3" d="M172,108.86c-15.19,25.53-42.08,25.91-44.1,25.91h-.12c-2,0-28.91-.38-44.11-25.91,0,0-20.84-27.79-9.47-47.38,0,0,16.39-15.13,53.58-14.53h.12c37.19-.6,53.58,14.53,53.58,14.53C192.83,81.07,172,108.86,172,108.86Z"/></g><path id="LOGO_蓮花" data-name="LOGO 蓮花" class="cls-4" d="M128.82,141.61c40.6-.7,58.1-44.1,58.1-44.1a57.84,57.84,0,0,0,5.6-18.2c1.4-10.5,0-14-.7-18.2s2.1-8.4,2.1-8.4c.7-2.8,9.8-9.8,9.8-9.8,2.1-1.4,3.5-.7,3.5-.7,1.4,0,2.8,4.2,2.8,4.2.7,0,2.1,11.2,2.1,11.2.7,3.5,0,10.5,0,10.5-2.8,45.5-40.6,65.8-40.6,65.8,38.5-21.7,43.4-55.3,43.4-55.3,2.8-9.8,14-14,14-14,3.5-2.1,4.2,2.8,4.2,2.8s1.4,11.2-5.6,28c-14.7,34.3-60.2,48.3-60.2,48.3,0,.7,16.1-5.6,16.1-5.6,35.7-14,47.6-41.3,47.6-41.3.7-2.8,8.4-6.3,8.4-6.3,10.5-4.2,8.31,2.4,8.31,2.4-4.41,14.14-14.15,31.49-35.61,42.4-21,13.3-54.6,16.8-54.6,16.8l8-1.05s26.6-4.2,28.7-4.9c9.8-4.2,16.1.7,16.1.7s5.6,4.9-5.6,9.1c-17.5,5.6-62,4.55-62,4.55-8.4,7-14.7,6.3-14.7,6.3s-6.3,1.4-15.4-6.3c0,0-44.35,1.05-61.85-4.55-11.2-4.2-5.6-9.1-5.6-9.1s6.3-4.9,16.1-.7c2.1.7,28.7,4.9,28.7,4.9l8.05,1.05s-33.6-3.5-54.6-16.8C22.05,124.4,12.31,107.05,7.9,92.91c0,0-2.18-6.6,8.32-2.4,0,0,7.7,3.5,8.4,6.3,0,0,11.9,27.3,47.6,41.3,0,0,16.1,6.3,16.1,5.6,0,0-45.5-14-60.2-48.3-7-16.8-5.6-28-5.6-28s.7-4.9,4.2-2.8c0,0,11.2,4.2,14,14,0,0,4.9,33.6,43.4,55.3,0,0-37.8-20.3-40.6-65.8,0,0-.7-7,0-10.5,0,0,1.4-11.2,2.1-11.2,0,0,1.4-4.2,2.8-4.2,0,0,1.4-.7,3.5.7,0,0,9.1,7,9.8,9.8,0,0,2.8,4.2,2.1,8.4s-2.1,7.7-.7,18.2a57.84,57.84,0,0,0,5.6,18.2s17.5,43.4,58.1,44.1Z"/><g id="LOGO_中央" data-name="LOGO 中央"><g id="主"><path class="cls-2" d="M171.91,95.41c-3.49,1-36.39-1.75-33.6-37.8L132,57.26v-4.2h-7.7v4.2l-6.65.35c4.2,37.8-33.6,37.8-33.6,37.8l-.35,7.35s42,0,41.3-41.3h6.3s-2.1,39.9,40.6,41.3Z"/><text class="cls-5" transform="translate(125.09 59.17)">卍</text><path class="cls-2" d="M87.92,103.46v6.3s28-1.4,33.6,12.6h14s-.7-11.2,32.9-12.6v-7s-35,.7-38.5,14.7h-2.8S119.42,102.06,87.92,103.46Z"/></g><g id="中"><path class="cls-2" d="M134.82,96.46V83.86H132v4.9h-2.8v-4.9h-2.8v4.9h-2.8v-4.9h-2.8v11.9c0,2.8,3.5,2.8,3.5,2.8h2.1v12.6h2.8V98.56h2.1S134.82,98.56,134.82,96.46Z"/><rect class="cls-1" x="123.62" y="91.56" width="2.8" height="4.2"/><rect class="cls-1" x="129.22" y="91.56" width="2.8" height="4.2"/></g></g></svg>