<svg xmlns="http://www.w3.org/2000/svg" height="512pt" version="1.1" viewBox="-61 0 512 512" width="512pt">
<g id="surface1">
<path d="M 375 180 L 315 180 C 306.710938 180 300 173.289062 300 165 L 300 75 C 300 66.710938 306.710938 60 315 60 L 375 60 C 383.289062 60 390 66.710938 390 75 L 390 165 C 390 173.289062 383.289062 180 375 180 Z M 375 180 " style=" stroke:none;fill-rule:nonzero;fill:rgb(32.54902%,26.27451%,24.705882%);fill-opacity:1;" />
<path d="M 375 330 L 315 330 C 306.710938 330 300 323.289062 300 315 L 300 225 C 300 216.710938 306.710938 210 315 210 L 375 210 C 383.289062 210 390 216.710938 390 225 L 390 315 C 390 323.289062 383.289062 330 375 330 Z M 375 330 " style=" stroke:none;fill-rule:nonzero;fill:rgb(32.54902%,26.27451%,24.705882%);fill-opacity:1;" />
<path d="M 285 0 L 45 0 C 20.097656 0 0 20.097656 0 45 L 0 467 C 0 491.898438 20.097656 512 45 512 L 285 512 C 309.902344 512 330 491.898438 330 467 L 330 45 C 330 20.097656 309.902344 0 285 0 Z M 285 0 " style=" stroke:none;fill-rule:nonzero;fill:rgb(59.215686%,62.352941%,93.72549%);fill-opacity:1;" />
<path d="M 330 45 L 330 467 C 330 491.898438 309.902344 512 285 512 L 165 512 L 165 0 L 285 0 C 309.902344 0 330 20.097656 330 45 Z M 330 45 " style=" stroke:none;fill-rule:nonzero;fill:rgb(47.45098%,51.764706%,92.156863%);fill-opacity:1;" />
<path d="M 255 60 L 75 60 C 66.597656 60 60 66.597656 60 75 L 60 195 C 60 203.398438 66.597656 210 75 210 L 255 210 C 263.402344 210 270 203.398438 270 195 L 270 75 C 270 66.597656 263.402344 60 255 60 Z M 255 60 " style=" stroke:none;fill-rule:nonzero;fill:rgb(40.784314%,32.941176%,30.980392%);fill-opacity:1;" />
<path d="M 270 75 L 270 195 C 270 203.398438 263.402344 210 255 210 L 165 210 L 165 60 L 255 60 C 263.402344 60 270 66.597656 270 75 Z M 270 75 " style=" stroke:none;fill-rule:nonzero;fill:rgb(32.54902%,26.27451%,24.705882%);fill-opacity:1;" />
<path d="M 90 90 L 240 90 L 240 180 L 90 180 Z M 90 90 " style=" stroke:none;fill-rule:nonzero;fill:rgb(72.54902%,86.666667%,22.352941%);fill-opacity:1;" />
<path d="M 165 90 L 240 90 L 240 180 L 165 180 Z M 165 90 " style=" stroke:none;fill-rule:nonzero;fill:rgb(65.882353%,82.745098%,16.470588%);fill-opacity:1;" />
<path d="M 165 240 C 107.101562 240 60 287.101562 60 345 C 60 402.898438 107.101562 451 165 451 C 222.898438 451 270 402.898438 270 345 C 270 287.101562 222.898438 240 165 240 Z M 165 240 " style=" stroke:none;fill-rule:nonzero;fill:rgb(87.058824%,92.54902%,94.509804%);fill-opacity:1;" />
<path d="M 270 345 C 270 402.898438 222.898438 451 165 451 L 165 240 C 222.898438 240 270 287.101562 270 345 Z M 270 345 " style=" stroke:none;fill-rule:nonzero;fill:rgb(65.882353%,82.745098%,84.705882%);fill-opacity:1;" />
<path d="M 165 270 C 123.601562 270 90 303.601562 90 345 C 90 386.398438 123.601562 420 165 420 C 206.398438 420 240 386.398438 240 345 C 240 303.601562 206.398438 270 165 270 Z M 165 270 " style=" stroke:none;fill-rule:nonzero;fill:rgb(40.784314%,32.941176%,30.980392%);fill-opacity:1;" />
<path d="M 240 345 C 240 386.398438 206.398438 420 165 420 L 165 270 C 206.398438 270 240 303.601562 240 345 Z M 240 345 " style=" stroke:none;fill-rule:nonzero;fill:rgb(32.54902%,26.27451%,24.705882%);fill-opacity:1;" />
<path d="M 143.789062 338.789062 C 139.949219 338.789062 136.113281 337.324219 133.183594 334.394531 L 90.761719 291.972656 C 84.902344 286.113281 84.902344 276.621094 90.761719 270.761719 C 96.621094 264.902344 106.113281 264.902344 111.972656 270.761719 L 154.394531 313.183594 C 160.253906 319.042969 160.253906 328.535156 154.394531 334.394531 C 151.464844 337.324219 147.628906 338.789062 143.789062 338.789062 Z M 143.789062 338.789062 " style=" stroke:none;fill-rule:nonzero;fill:rgb(87.058824%,92.54902%,94.509804%);fill-opacity:1;" />
<path d="M 218.027344 419.238281 L 175.605469 376.816406 C 169.746094 370.957031 169.746094 361.464844 175.605469 355.605469 C 181.464844 349.746094 190.957031 349.746094 196.816406 355.605469 L 239.238281 398.027344 C 245.097656 403.886719 245.097656 413.378906 239.238281 419.238281 C 233.378906 425.097656 223.886719 425.097656 218.027344 419.238281 Z M 218.027344 419.238281 " style=" stroke:none;fill-rule:nonzero;fill:rgb(65.882353%,82.745098%,84.705882%);fill-opacity:1;" />
<path d="M 101.367188 423.632812 C 97.527344 423.632812 93.691406 422.167969 90.761719 419.238281 C 84.902344 413.378906 84.902344 403.886719 90.761719 398.027344 L 133.183594 355.605469 C 139.042969 349.746094 148.535156 349.746094 154.394531 355.605469 C 160.253906 361.464844 160.253906 370.957031 154.394531 376.816406 L 111.972656 419.238281 C 109.042969 422.167969 105.203125 423.632812 101.367188 423.632812 Z M 101.367188 423.632812 " style=" stroke:none;fill-rule:nonzero;fill:rgb(87.058824%,92.54902%,94.509804%);fill-opacity:1;" />
<path d="M 175.605469 334.394531 C 169.746094 328.535156 169.746094 319.042969 175.605469 313.183594 L 218.027344 270.761719 C 223.886719 264.902344 233.378906 264.902344 239.238281 270.761719 C 245.097656 276.621094 245.097656 286.113281 239.238281 291.972656 L 196.816406 334.394531 C 190.957031 340.253906 181.464844 340.253906 175.605469 334.394531 Z M 175.605469 334.394531 " style=" stroke:none;fill-rule:nonzero;fill:rgb(65.882353%,82.745098%,84.705882%);fill-opacity:1;" />
<path d="M 105 150 C 80.1875 150 60 129.8125 60 105 C 60 80.1875 80.1875 60 105 60 C 129.8125 60 150 80.1875 150 105 C 150 129.8125 129.8125 150 105 150 Z M 105 150 " style=" stroke:none;fill-rule:nonzero;fill:rgb(40.784314%,32.941176%,30.980392%);fill-opacity:1;" />
<path d="M 225 150 C 200.1875 150 180 129.8125 180 105 C 180 80.1875 200.1875 60 225 60 C 249.8125 60 270 80.1875 270 105 C 270 129.8125 249.8125 150 225 150 Z M 225 150 " style=" stroke:none;fill-rule:nonzero;fill:rgb(32.54902%,26.27451%,24.705882%);fill-opacity:1;" />
<path d="M 240 135 C 240 143.398438 233.402344 150 225 150 L 105 150 C 96.597656 150 90 143.398438 90 135 C 90 126.597656 96.597656 120 105 120 L 225 120 C 233.402344 120 240 126.597656 240 135 Z M 240 135 " style=" stroke:none;fill-rule:nonzero;fill:rgb(40.784314%,32.941176%,30.980392%);fill-opacity:1;" />
<path d="M 225 150 L 165 150 L 165 120 L 225 120 C 233.402344 120 240 126.597656 240 135 C 240 143.398438 233.402344 150 225 150 Z M 225 150 " style=" stroke:none;fill-rule:nonzero;fill:rgb(32.54902%,26.27451%,24.705882%);fill-opacity:1;" />
<path d="M 165 300 C 140.097656 300 120 320.097656 120 345 C 120 369.898438 140.097656 390 165 390 C 189.902344 390 210 369.898438 210 345 C 210 320.097656 189.902344 300 165 300 Z M 165 300 " style=" stroke:none;fill-rule:nonzero;fill:rgb(87.058824%,92.54902%,94.509804%);fill-opacity:1;" />
<path d="M 210 345 C 210 369.898438 189.902344 390 165 390 L 165 300 C 189.902344 300 210 320.097656 210 345 Z M 210 345 " style=" stroke:none;fill-rule:nonzero;fill:rgb(65.882353%,82.745098%,84.705882%);fill-opacity:1;" />
<path d="M 120 105 C 120 113.285156 113.285156 120 105 120 C 96.714844 120 90 113.285156 90 105 C 90 96.714844 96.714844 90 105 90 C 113.285156 90 120 96.714844 120 105 Z M 120 105 " style=" stroke:none;fill-rule:nonzero;fill:rgb(72.54902%,86.666667%,22.352941%);fill-opacity:1;" />
<path d="M 240 105 C 240 113.285156 233.285156 120 225 120 C 216.714844 120 210 113.285156 210 105 C 210 96.714844 216.714844 90 225 90 C 233.285156 90 240 96.714844 240 105 Z M 240 105 " style=" stroke:none;fill-rule:nonzero;fill:rgb(65.882353%,82.745098%,16.470588%);fill-opacity:1;" />
</g>
</svg>